# xmcd
#
# Track frame offsets:
#	150
#	17465
#	33434
#	49688
#	68588
#	86583
#	101535
#	119582
#	137563
#	150880
#	169370
#	186338
#
# Disc length: 2699 seconds
#
# Revision: 0
# Processed by: cddbd v1.5.2PL0 Copyright (c) Steve Scherf et al.
# Submitted via: dBpowerAMP V4.0
#
DISCID=930a890c
DTITLE=Sharon Lane - Second Chance
DYEAR=2007
DGENRE=Country
TTITLE0=Let the Guitars Do the Talkin`
TTITLE1=I Started Living
TTITLE2=I Don`t Want to Fall to Pieces
TTITLE3=That`s Just It
TTITLE4=What A Difference Love Makes
TTITLE5=With Or Without You
TTITLE6=Something You Said
TTITLE7=Second Chance
TTITLE8=Hello
TTITLE9=It`s All Over Now Baby Blue
TTITLE10=Let`s Talk About It
TTITLE11=I Cried
EXTD=
EXTT0=
EXTT1=
EXTT2=
EXTT3=
EXTT4=
EXTT5=
EXTT6=
EXTT7=
EXTT8=
EXTT9=
EXTT10=
EXTT11=
PLAYORDER=
